<svg height="557pt" viewBox="-37 -17 557 557.33366" width="557pt" xmlns="http://www.w3.org/2000/svg"><path d="m275.144531 189.972656c0-12.421875-10.074219-22.5-22.496093-22.5-12.425782 0-22.5 10.078125-22.5 22.5 0 12.425782 10.074218 22.496094 22.5 22.496094 12.414062-.015625 22.484374-10.078125 22.496093-22.496094zm-27.496093 0c0-2.761718 2.234374-5 5-5 2.757812 0 5 2.238282 5 5 0 2.761719-2.242188 5-5 5-2.765626 0-5-2.238281-5-5zm0 0"/><path d="m415.667969 158.460938c0-14.328126-11.609375-25.9375-25.933594-25.9375-14.328125 0-25.9375 11.609374-25.9375 25.9375 0 14.324218 11.609375 25.933593 25.9375 25.933593 14.3125-.015625 25.917969-11.621093 25.933594-25.933593zm-34.371094 0c0-4.660157 3.777344-8.4375 8.4375-8.4375 4.65625 0 8.433594 3.777343 8.433594 8.4375 0 4.65625-3.777344 8.4375-8.433594 8.4375-4.660156-.007813-8.433594-3.78125-8.4375-8.4375zm0 0"/><path d="m451.929688 265.019531c-3.09375-20.890625-16.464844-38.839843-35.601563-47.773437-19.136719-8.9375-41.476563-7.671875-59.484375 3.367187-8.015625-17.6875-26.238281-28.472656-45.601562-27-19.359376 1.480469-35.734376 14.902344-40.976563 33.597657-.164063 0-.320313.257812-.480469.257812-22.125.140625-41.09375 15.839844-45.363281 37.550781h-7.128906c-15.65625 0-28.433594 12.152344-28.433594 27.804688v14.730469c0 .214843.035156.429687.054687.644531.691407 32.644531 12.292969 64.113281 32.949219 89.398437l10.84375 96.410156c1.578125 16.203126 15.226563 28.546876 31.507813 28.492188h141.847656c16.246094.070312 29.878906-12.222656 31.488281-28.386719l10.828125-96.324219c20.578125-25.238281 32.152344-56.609374 32.90625-89.160156.039063-.355468.058594-.71875.050782-1.074218v-14.730469c-.023438-7.460938-3.035157-14.601563-8.363282-19.832031-5.324218-5.222657-12.523437-8.09375-19.988281-7.972657zm-62.066407-36.183593c21.539063-.140626 40.136719 15.050781 44.285157 36.183593h-22.050782c-7.453125-.117187-14.640625 2.757813-19.953125 7.984375-5.3125 5.226563-8.300781 12.371094-8.300781 19.820313v47.226562c-.019531.464844-.242188.898438-.609375 1.183594-.464844.3125-1.027344.4375-1.578125.359375-.875-.234375-1.503906-.996094-1.5625-1.890625v-46.875c.078125-7.414063-2.835938-14.546875-8.089844-19.785156-5.253906-5.234375-12.394531-8.132813-19.8125-8.023438h-6.605468c1.976562-9.722656 7.117187-18.515625 14.621093-25h.820313s-.011719-.496093-.019532-.730469c8.101563-6.753906 18.316407-10.449218 28.855469-10.453124zm41.726563 161.667968c-16.914063 19.09375-39.105469 32.765625-63.769532 39.273438-3.828124-4.605469-9.507812-7.265625-15.496093-7.269532h-34.375c-5.984375.003907-11.65625 2.671876-15.484375 7.273438-24.722656-6.496094-46.9375-20.230469-63.796875-39.4375l-8.3125-74.078125h132.242187v23.4375c.039063 9.617187 7.078125 17.769531 16.589844 19.21875.929688.125 1.867188.1875 2.804688.1875 4.644531.007813 9.136718-1.652344 12.660156-4.667969 4.199218-3.609375 6.640625-8.851562 6.691406-14.390625v-23.785156h38.585938zm-76.558594 52.003906c-.007812.695313-.304688 1.355469-.8125 1.828126-.515625.472656-1.195312.714843-1.890625.667968h-34.371094c-.945312.074219-1.84375-.382812-2.335937-1.1875-.492188-.800781-.492188-1.816406 0-2.617187.492187-.808594 1.390625-1.265625 2.335937-1.191407h34.371094c.695313-.046874 1.375.195313 1.890625.667969.507812.472657.804688 1.132813.8125 1.832031zm-85.242188-197.558593c5.917969-.066407 11.703126 1.71875 16.5625 5.101562 3.972657 2.707031 9.390626 1.71875 12.152344-2.222656 2.761719-3.941406 1.847656-9.363281-2.054687-12.183594-2.796875-1.976562-5.804688-3.640625-8.96875-4.953125 3.988281-12.1875 15.574219-20.253906 28.390625-19.753906 12.8125.5 23.738281 9.441406 26.769531 21.902344-7.972656 9.050781-13.128906 20.238281-14.832031 32.179687h-85.332032c3.503907-12.109375 14.707032-20.34375 27.308594-20.070312zm-63.429687 47.875c0-6.003907 4.925781-10.304688 10.929687-10.304688h13.070313c.625 0 1.265625.21875 1.929687.21875.664063 0 1.3125-.21875 1.929688-.21875h117.972656c2.773438-.113281 5.46875.9375 7.441406 2.890625 1.972657 1.953125 3.046876 4.636719 2.964844 7.414063v5.941406h-156.238281zm.519531 23.441406h5.859375l4.5625 40.582031c-5.621093-12.882812-9.140625-26.585937-10.421875-40.582031zm213.269532 176.003906c-.703126 7.242188-6.804688 12.761719-14.085938 12.730469h-141.847656c-7.320313.015625-13.4375-5.554688-14.101563-12.839844l-8.371093-74.464844c16.4375 13.660157 35.703124 23.511719 56.40625 28.84375 1.949218 9.363282 10.238281 16.054688 19.800781 15.964844h34.375c9.5625.089844 17.859375-6.59375 19.800781-15.960937 20.6875-5.410157 39.945312-15.28125 56.402344-28.925781zm37.390624-176.003906h5.859376c-1.269532 14.0625-4.800782 27.828125-10.441407 40.769531zm6.300782-23.441406v5.941406h-62.496094v-5.941406c0-6.003907 4.746094-10.304688 10.753906-10.304688h40.886719c6.011719 0 10.855469 4.300781 10.855469 10.304688zm0 0"/><path d="m342.597656 337.460938c-4.832031 0-8.75 3.917968-8.75 8.75v28.746093c0 4.832031 3.917969 8.75 8.75 8.75 4.828125 0 8.75-3.917969 8.75-8.75v-28.746093c0-4.832032-3.921875-8.75-8.75-8.75zm0 0"/><path d="m388.84375 374.957031c-4.832031 0-8.75 3.921875-8.75 8.75v21.25c0 4.832031 3.917969 8.746094 8.75 8.746094 4.828125 0 8.75-3.914063 8.75-8.746094v-21.25c0-4.828125-3.921875-8.75-8.75-8.75zm0 0"/><path d="m7.578125 522.5h.058594l212.484375-1.445312c2.601562-.015626 5.066406-1.191407 6.71875-3.207032 1.644531-2.015625 2.308594-4.664062 1.804687-7.21875l-12.121093-61.535156c1.179687-5.84375-.335938-11.910156-4.132813-16.515625-3.792969-4.597656-9.457031-7.242187-15.421875-7.195313l-26.925781.03125c-.960938-10.777343-9.941407-19.058593-20.757813-19.15625h-.160156l-26.511719.5625v-398.070312c0-4.835938-3.921875-8.75-8.75-8.75-4.832031 0-8.75 3.914062-8.75 8.75v398.207031l-28.527343.21875c-10.847657.089844-19.8125 8.480469-20.613282 19.296875l-26.925781.210938c-5.804687.003906-11.3125 2.570312-15.042969 7.019531-3.730468 4.449219-5.308594 10.320313-4.300781 16.039063l-10.746094 62.566406c-.433593 2.535156.273438 5.136718 1.9375 7.105468 1.660157 1.964844 4.109375 3.097657 6.683594 3.085938zm188.78125-18.761719v-15.40625c0-4.828125-3.921875-8.75-8.75-8.75-4.832031 0-8.75 3.921875-8.75 8.75v15.523438l-18.75.136719v-15.660157c0-4.828125-3.917969-8.75-8.746094-8.75-4.835937 0-8.75 3.921875-8.75 8.75v15.78125l-20 .136719v-15.917969c0-4.828125-3.921875-8.75-8.75-8.75-4.832031 0-8.75 3.921875-8.75 8.75v16.035157l-19.996093.136718v-16.171875c0-4.828125-3.921876-8.75-8.75-8.75-4.832032 0-8.75 3.921875-8.75 8.75v16.292969l-18.746094.136719v-16.425781c0-4.832032-3.921875-8.746094-8.75-8.746094-4.835938 0-8.75 3.914062-8.75 8.746094v16.539062l-13.203125.09375 6.640625-39.25c1.441406.351562 2.910156.527344 4.390625.53125h.15625l167.921875-1.289062c1.492187-.019532 2.976562-.199219 4.425781-.546876l7.5 39.230469zm-167.175781-59.558593 35.609375-.273438c4.832031-.039062 8.71875-3.984375 8.679687-8.816406l-.054687-7.050782c-.007813-.886718.335937-1.742187.960937-2.371093.59375-.699219 1.445313-1.125 2.359375-1.179688l72.519531-.734375h.027344c1.871094.082032 3.347656 1.625 3.339844 3.5l.054688 7.132813c.019531 2.332031.957031 4.566406 2.613281 6.214843 1.660156 1.59375 3.898437 2.441407 6.203125 2.34375l35.609375-.4375h.019531c.777344 0 1.019531.546876 1.328125.847657.332031.539062.472656 1.171875.40625 1.800781.078125.570312-.054687 1.152344-.378906 1.625-.363281.4375-.90625.691406-1.476563.679688l-167.785156 1.292968h-.015625c-1.246094-.023437-2.242187-1.035156-2.246094-2.277344-.003906-1.246093.980469-2.261718 2.226563-2.296874zm0 0"/></svg>